<svg xmlns="http://www.w3.org/2000/svg" viewBox="0 0 901.27 236"><defs><style>.a{fill:#c7341e;}.b{fill:#3f8c27;}.c{fill:#7b59b0;}.d{fill:#0f61d6;}.e{fill:#2f3133;}</style></defs><title>silc-logo</title><path class="a" d="M180.5,334c5.08-13.15,9.46-26.89,13.88-40.67H131.62c-.77,4.43-1.45,9-2,13.82C117.5,397,49.5,418,49.5,418h74c9.25-14.28,23.15-24.63,33-39C167.5,365,174.5,350,180.5,334Z" transform="translate(-49.5 -182)"/><path class="b" d="M180.5,334c-6,16-13,31-24,45-9.88,14.37-23.78,24.72-33,39h71.2s40,0,63.41-107.27c1.32-6.07,2.77-11.86,4.31-17.39h-68C190,307.11,185.58,320.85,180.5,334Z" transform="translate(-49.5 -182)"/><path class="c" d="M255.4,182H209.68s-61.1,13.11-78.07,111.33h62.76C207.73,251.65,221.4,209.56,255.4,182Z" transform="translate(-49.5 -182)"/><path class="d" d="M255.4,182c-34,27.56-47.66,69.65-61,111.33h68C288,201.11,341.5,182,341.5,182Z" transform="translate(-49.5 -182)"/><path d="M385.19,258.95a9.92,9.92,0,0,1,4.45-8.76q4.45-3,12.21-3,12.35,0,31.6,6.61a192.83,192.83,0,0,1,35.33,16.09l22.12-46q-16.66-10.62-39.07-17.09a162,162,0,0,0-45.1-6.46q-25,0-43.81,7.76t-29.16,22.26a54.6,54.6,0,0,0-9.29,22.11l60.78,7.88C385.22,259.89,385.19,259.42,385.19,258.95Z" transform="translate(-49.5 -182)"/><path class="e" d="M456.14,293.27a263.77,263.77,0,0,0-35-12.21q-18.68-5.17-27.29-9.62-7.85-4.05-8.54-11.09l-60.78-7.88a65.93,65.93,0,0,0-1.05,11.93q0,20.11,10.05,32.46a61.72,61.72,0,0,0,23.84,18.24,250.86,250.86,0,0,0,34.76,11.35q18.67,4.89,27.58,9.34t8.9,12.78a12.12,12.12,0,0,1-5.46,10.63q-5.46,3.74-15.22,3.73-15.8,0-37.77-9t-37.2-22.26L310.5,377q19,15.23,45,24a161.54,161.54,0,0,0,51.85,8.76q23.27,0,42.08-7.18t29.87-21.69q11.05-14.5,11.06-35.47,0-20.68-10.2-33.32A64.58,64.58,0,0,0,456.14,293.27Z" transform="translate(-49.5 -182)"/><polygon points="522.4 22.94 462.65 22.94 462.65 94.8 522.4 102.54 522.4 22.94"/><polygon class="e" points="462.65 94.8 462.65 224.31 522.4 224.31 522.4 102.54 462.65 94.8"/><polygon class="e" points="616.04 114.68 556.29 106.93 556.29 224.31 700.49 224.31 700.49 174.32 616.04 174.32 616.04 114.68"/><polygon points="616.04 22.94 556.29 22.94 556.29 106.93 616.04 114.68 616.04 22.94"/><path d="M820.36,304.33a58.79,58.79,0,0,1,6.32-27.43,48.29,48.29,0,0,1,17.24-19.1,44.77,44.77,0,0,1,24.42-6.89q12.35,0,25.42,7.33a72.12,72.12,0,0,1,22.55,20l34.47-41.08Q935.54,220.74,912.86,211a114.08,114.08,0,0,0-45.39-9.77q-30.74,0-55.44,13.5a99.92,99.92,0,0,0-38.78,37.2q-14.08,23.7-14.08,53,0,2,.06,3.92l62.32,8.08A65.2,65.2,0,0,1,820.36,304.33Z" transform="translate(-49.5 -182)"/><path class="e" d="M892.89,351.73Q879.82,358,868.33,358a44.06,44.06,0,0,1-24.42-7,49.32,49.32,0,0,1-17.24-19.25,55.21,55.21,0,0,1-5.12-14.86l-62.32-8.08q.85,27.55,13.73,50.09A98.76,98.76,0,0,0,811,396.68q24.27,13.65,54.43,13.64,22.69,0,45.82-10.63a122.35,122.35,0,0,0,39.5-28.44L916.3,334.49A80,80,0,0,1,892.89,351.73Z" transform="translate(-49.5 -182)"/><path class="d" d="M224.16,218.41a15.5,15.5,0,1,0-10.06,28.82l14.33-25.28A15.43,15.43,0,0,0,224.16,218.41Z" transform="translate(-49.5 -182)"/><path class="b" d="M245.79,293.29a15.5,15.5,0,1,0-30,5.71l29.06-.24A15.43,15.43,0,0,0,245.79,293.29Z" transform="translate(-49.5 -182)"/><path class="c" d="M146.59,294.89a15.5,15.5,0,1,0,29.91-6.06l-29.05.58A15.43,15.43,0,0,0,146.59,294.89Z" transform="translate(-49.5 -182)"/><path class="a" d="M162,369.33a15.5,15.5,0,1,0,10.67-28.59l-14.87,25A15.43,15.43,0,0,0,162,369.33Z" transform="translate(-49.5 -182)"/></svg>